<svg width="36" height="35" viewBox="0 0 36 35" fill="none" xmlns="http://www.w3.org/2000/svg">
<path fill-rule="evenodd" clip-rule="evenodd" d="M23.9792 1.04004C23.3168 1.32457 22.7078 1.72008 22.1787 2.21005L2.01012 20.868C0.946477 21.8518 0.617784 23.3988 1.18954 24.7297C1.7613 26.061 3.10909 26.8878 4.55519 26.7941L31.9727 25.0162C32.6922 24.9697 33.3984 24.8004 34.0608 24.5163" fill="#F3F8FF"/>
<path fill-rule="evenodd" clip-rule="evenodd" d="M5.0468 18.0583L2.00984 20.8676C0.946582 21.8518 0.617889 23.3985 1.18965 24.7297C1.76102 26.061 3.1092 26.8878 4.55491 26.7941L8.69237 26.526C8.29994 26.0875 7.25741 24.8027 6.28631 22.541C5.31674 20.2832 5.09672 18.6466 5.0468 18.0583Z" fill="#FF6F57"/>
<path fill-rule="evenodd" clip-rule="evenodd" d="M14.6236 9.19873L5.04698 18.0581C5.0969 18.6464 5.31654 20.2829 6.28649 22.5408C7.2576 24.8028 8.29974 26.0873 8.69256 26.5258L21.7197 25.681C20.9133 24.7709 18.9147 22.2639 17.0485 17.9191C15.1858 13.5812 14.7334 10.4129 14.6236 9.19873Z" fill="#F3F8FF"/>
<path fill-rule="evenodd" clip-rule="evenodd" d="M33.0446 11.0496C35.8285 17.532 36.2835 23.561 34.061 24.5156C31.8381 25.4702 27.7797 20.9887 24.9958 14.5062C22.2119 8.02335 21.7569 1.99436 23.9794 1.03977C26.2019 0.0851772 30.2607 4.56669 33.0446 11.0496Z" fill="#7289DA"/>
<path fill-rule="evenodd" clip-rule="evenodd" d="M24.3071 11.982C25.6219 11.4172 27.1459 12.0254 27.7104 13.3402C28.2752 14.6553 27.667 16.179 26.3522 16.7434" fill="#FFD671"/>
<path fill-rule="evenodd" clip-rule="evenodd" d="M33.0446 11.0496C35.8285 17.532 36.2835 23.561 34.061 24.5156C31.8381 25.4702 27.7797 20.9887 24.9958 14.5062C22.2119 8.02335 21.7569 1.99436 23.9794 1.03977C26.2019 0.0851772 30.2607 4.56669 33.0446 11.0496Z" stroke="#1E2126" stroke-width="0.767975" stroke-linecap="round" stroke-linejoin="round"/>
<path d="M20.4116 3.84473L2.01012 20.868C0.946477 21.8522 0.617784 23.3989 1.18954 24.7302C1.7613 26.0611 3.10909 26.8882 4.55519 26.7945L31.9727 25.0166C32.6922 24.9702 33.3984 24.8004 34.0608 24.5163M5.22417 24.7173C4.75225 24.824 4.27956 24.9296 3.80342 25.0318M4.58595 23.2717L3.27501 23.802M3.94753 21.8258L2.74719 22.5715M11.8744 29.7522L13.031 32.4455C13.481 33.493 14.6948 33.9776 15.7427 33.5276C16.7902 33.0776 17.2748 31.8638 16.8248 30.8163L14.8488 26.2149" stroke="#1E2126" stroke-width="0.767975" stroke-linecap="round" stroke-linejoin="round"/>
<path d="M8.73823 26.4254C8.73823 26.4254 7.43651 25.2197 6.28647 22.541C5.13604 19.8623 5.14986 18.0914 5.14986 18.0914M21.8596 25.5412C21.8596 25.5412 19.3061 23.1751 17.0486 17.9191C14.7916 12.663 14.8192 9.18872 14.8192 9.18872M10.9139 27.5155L10.5725 26.7207" stroke="#1E2126" stroke-width="0.767975" stroke-linecap="round" stroke-linejoin="round"/>
</svg>
