<svg width="12" height="12" viewBox="0 0 12 12" fill="none" xmlns="http://www.w3.org/2000/svg">
<path d="M0.289474 4.24992C0.289474 3.22834 0.289474 2.71809 0.626382 2.40067C0.963289 2.08325 1.50487 2.08325 2.58918 2.08325H9.48831C10.5726 2.08325 11.1142 2.08325 11.4511 2.40067C11.788 2.71809 11.788 3.22834 11.788 4.24992C11.788 4.50504 11.788 4.63288 11.7041 4.7125C11.6196 4.79159 11.4833 4.79158 11.2131 4.79158H0.864401C0.593611 4.79158 0.457928 4.79159 0.373414 4.7125C0.289474 4.63288 0.289474 4.5045 0.289474 4.24992Z" fill="#4F4A4A"/>
<path fill-rule="evenodd" clip-rule="evenodd" d="M0.626382 10.9742C0.289474 10.6568 0.289474 10.1466 0.289474 9.125V6.41667C0.289474 6.16154 0.289474 6.03371 0.373414 5.95408C0.457928 5.875 0.594186 5.875 0.864401 5.875H11.2131C11.4839 5.875 11.6196 5.875 11.7041 5.95408C11.788 6.03371 11.788 6.16154 11.788 6.41667V9.125C11.788 10.1466 11.788 10.6568 11.4511 10.9742C11.1142 11.2917 10.5726 11.2917 9.48831 11.2917H2.58918C1.50487 11.2917 0.963289 11.2917 0.626382 10.9742ZM3.73904 8.04167C3.58656 8.04167 3.44032 8.09873 3.3325 8.20032C3.22468 8.3019 3.16411 8.43967 3.16411 8.58333C3.16411 8.72699 3.22468 8.86477 3.3325 8.96635C3.44032 9.06793 3.58656 9.125 3.73904 9.125H8.33845C8.49093 9.125 8.63717 9.06793 8.74499 8.96635C8.85281 8.86477 8.91338 8.72699 8.91338 8.58333C8.91338 8.43967 8.85281 8.3019 8.74499 8.20032C8.63717 8.09873 8.49093 8.04167 8.33845 8.04167H3.73904Z" fill="#4F4A4A"/>
<path d="M3.16411 1V2.625M8.91338 1V2.625" stroke="#4F4A4A" stroke-width="1.08333" stroke-linecap="round"/>
</svg>
