<svg width="13" height="10" viewBox="0 0 13 10" fill="none" xmlns="http://www.w3.org/2000/svg">
<path d="M8.27273 0.00194705C8.68763 0.00195643 9.09521 0.0992206 9.45452 0.283964C9.81383 0.468707 10.1122 0.73442 10.3197 1.0544C10.5271 1.37437 10.6363 1.73734 10.6363 2.10681C10.6363 2.47629 10.5271 2.83925 10.3196 3.15923H13V4.21165H11.8182V9.47379C11.8182 9.61335 11.7559 9.74719 11.6451 9.84587C11.5343 9.94456 11.384 10 11.2273 10H1.77273C1.61601 10 1.46571 9.94456 1.35489 9.84587C1.24407 9.74719 1.18182 9.61335 1.18182 9.47379V4.21165H0V3.15923H2.67977C2.38591 2.70708 2.29136 2.17377 2.41452 1.66299C2.53767 1.15221 2.86973 0.700467 3.34612 0.395595C3.82251 0.0907234 4.4092 -0.0454901 4.9921 0.0134392C5.57501 0.0723685 6.11247 0.322229 6.5 0.71444C6.72127 0.49003 6.99387 0.310355 7.29951 0.187469C7.60516 0.0645831 7.93678 0.0013278 8.27214 0.00194705M7.09032 4.21165H5.9085V9.47379H7.09032V4.21165ZM4.72668 1.05437C4.42141 1.05502 4.12826 1.16083 3.90863 1.34965C3.68901 1.53847 3.55995 1.79564 3.54849 2.0673C3.53703 2.33896 3.64407 2.60403 3.84717 2.80699C4.05027 3.00994 4.33369 3.13504 4.63805 3.15607L4.72668 3.15923H5.9085V2.1068C5.90851 1.8553 5.80739 1.61212 5.62344 1.42128C5.43949 1.23044 5.18489 1.10458 4.90573 1.06648L4.81473 1.057L4.72668 1.05437ZM8.27214 1.05437C7.97398 1.05429 7.6868 1.15457 7.46818 1.33511C7.24955 1.51565 7.11563 1.7631 7.09327 2.02787L7.09032 2.1068V3.15923H8.27214C8.57019 3.15918 8.85722 3.05884 9.07572 2.87831C9.29422 2.69779 9.42805 2.45041 9.45041 2.18573L9.45395 2.1068C9.45395 1.82768 9.32944 1.55999 9.10781 1.36262C8.88617 1.16525 8.58557 1.05437 8.27214 1.05437Z" fill="#4F4A4A"/>
</svg>
