<svg width="25" height="24" viewBox="0 0 25 24" fill="none" xmlns="http://www.w3.org/2000/svg">
<path d="M10.4 18H14.4M2.75098 13.214C2.39798 10.916 2.22098 9.768 2.65598 8.749C3.08998 7.731 4.05398 7.034 5.98098 5.641L7.42098 4.6C9.81798 2.867 11.017 2 12.4 2C13.783 2 14.982 2.867 17.379 4.6L18.819 5.641C20.746 7.034 21.709 7.731 22.144 8.749C22.578 9.768 22.402 10.916 22.049 13.213L21.748 15.173C21.248 18.429 20.997 20.057 19.829 21.029C18.661 22.001 16.954 22 13.539 22H11.26C7.84498 22 6.13798 22 4.96998 21.029C3.80198 20.057 3.55198 18.429 3.05098 15.172L2.75098 13.214Z" stroke="#2B2B2B" stroke-width="1.5" stroke-linecap="round" stroke-linejoin="round"/>
</svg>
