<svg width="12" height="10" viewBox="0 0 12 10" fill="none" xmlns="http://www.w3.org/2000/svg">
<path d="M7.6524 3.88889C8.232 3.88889 8.7024 4.32444 8.7024 4.86111V7.49944C8.7024 8.16263 8.41787 8.79866 7.91141 9.2676C7.40495 9.73655 6.71804 10 6.0018 10C5.28556 10 4.59865 9.73655 4.09219 9.2676C3.58573 8.79866 3.3012 8.16263 3.3012 7.49944V4.86111C3.3012 4.32444 3.771 3.88889 4.3512 3.88889H7.6524ZM3.0786 3.88889C2.8618 4.12931 2.73172 4.42654 2.7066 4.73889L2.7006 4.86111V7.49944C2.7006 7.97 2.8158 8.41556 3.021 8.81333C2.8226 8.86333 2.6156 8.88852 2.4 8.88889C2.08478 8.88889 1.77264 8.83139 1.48142 8.71968C1.1902 8.60797 0.9256 8.44423 0.702732 8.23782C0.479863 8.03141 0.303093 7.78637 0.182517 7.51669C0.061941 7.24701 -7.87307e-05 6.95798 7.50068e-08 6.66611V4.86111C9.91776e-06 4.61712 0.0991027 4.38205 0.277608 4.20256C0.456113 4.02308 0.70098 3.9123 0.9636 3.89222L1.05 3.88889H3.0786ZM8.925 3.88889H10.95C11.5296 3.88889 12 4.32444 12 4.86111V6.66667C12.0001 7.00731 11.9156 7.34342 11.753 7.64901C11.5905 7.95461 11.3542 8.22151 11.0625 8.42909C10.7708 8.63668 10.4315 8.7794 10.0708 8.84621C9.71001 8.91303 9.33749 8.90216 8.982 8.81444C9.162 8.46556 9.2724 8.08111 9.297 7.67444L9.3024 7.49944V4.86111C9.3024 4.49167 9.1614 4.15278 8.925 3.88889ZM6 0C6.47739 0 6.93523 0.175595 7.27279 0.488155C7.61036 0.800716 7.8 1.22464 7.8 1.66667C7.8 2.10869 7.61036 2.53262 7.27279 2.84518C6.93523 3.15774 6.47739 3.33333 6 3.33333C5.52261 3.33333 5.06477 3.15774 4.72721 2.84518C4.38964 2.53262 4.2 2.10869 4.2 1.66667C4.2 1.22464 4.38964 0.800716 4.72721 0.488155C5.06477 0.175595 5.52261 0 6 0ZM9.9 0.555556C10.2978 0.555556 10.6794 0.701885 10.9607 0.962352C11.242 1.22282 11.4 1.57609 11.4 1.94444C11.4 2.3128 11.242 2.66607 10.9607 2.92654C10.6794 3.187 10.2978 3.33333 9.9 3.33333C9.50218 3.33333 9.12064 3.187 8.83934 2.92654C8.55804 2.66607 8.4 2.3128 8.4 1.94444C8.4 1.57609 8.55804 1.22282 8.83934 0.962352C9.12064 0.701885 9.50218 0.555556 9.9 0.555556ZM2.1 0.555556C2.49782 0.555556 2.87936 0.701885 3.16066 0.962352C3.44196 1.22282 3.6 1.57609 3.6 1.94444C3.6 2.3128 3.44196 2.66607 3.16066 2.92654C2.87936 3.187 2.49782 3.33333 2.1 3.33333C1.70218 3.33333 1.32064 3.187 1.03934 2.92654C0.758035 2.66607 0.6 2.3128 0.6 1.94444C0.6 1.57609 0.758035 1.22282 1.03934 0.962352C1.32064 0.701885 1.70218 0.555556 2.1 0.555556Z" fill="#4F4A4A"/>
</svg>
