<svg width="19" height="20" viewBox="0 0 19 20" fill="none" xmlns="http://www.w3.org/2000/svg">
<path d="M6.40195 15H3.00636C1.74793 15 1.11872 15 0.986332 14.9023C0.837602 14.7925 0.801262 14.7277 0.785152 14.5436C0.770822 14.3797 1.15646 13.7486 1.92776 12.4866C2.72411 11.1835 3.40031 9.2862 3.40031 6.6C3.40031 5.11479 4.03245 3.69041 5.15766 2.6402C6.28288 1.59 7.809 1 9.4003 1C10.9916 1 12.5177 1.59 13.6429 2.6402C14.7682 3.69041 15.4003 5.11479 15.4003 6.6C15.4003 9.2862 16.0765 11.1835 16.8729 12.4866C17.6441 13.7486 18.0298 14.3797 18.0155 14.5436C17.9994 14.7277 17.963 14.7925 17.8143 14.9023C17.6819 15 17.0527 15 15.7943 15H12.4003M6.40195 15L6.40031 16C6.40031 17.6569 7.7435 19 9.4003 19C11.0572 19 12.4003 17.6569 12.4003 16V15M6.40195 15H12.4003" stroke="#6C808C" stroke-width="1.5" stroke-linecap="round" stroke-linejoin="round"/>
</svg>
