<svg width="24" height="24" viewBox="0 0 24 24" fill="none" xmlns="http://www.w3.org/2000/svg">
<path fill-rule="evenodd" clip-rule="evenodd" d="M4.74423 16.7385C4.8132 16.6466 4.90262 16.572 5.00543 16.5205C5.10824 16.4691 5.2216 16.4424 5.33654 16.4424H9.03846C9.23482 16.4424 9.42314 16.5204 9.56199 16.6592C9.70084 16.7981 9.77885 16.9864 9.77885 17.1828C9.77885 17.3791 9.70084 17.5675 9.56199 17.7063C9.42314 17.8451 9.23482 17.9232 9.03846 17.9232H5.70673L2.375 22.3655H21.625L18.2933 17.9232H14.9615C14.7652 17.9232 14.5769 17.8451 14.438 17.7063C14.2992 17.5675 14.2212 17.3791 14.2212 17.1828C14.2212 16.9864 14.2992 16.7981 14.438 16.6592C14.5769 16.5204 14.7652 16.4424 14.9615 16.4424H18.6635C18.7784 16.4424 18.8918 16.4691 18.9946 16.5205C19.0974 16.572 19.1868 16.6466 19.2558 16.7385L23.6981 22.6616C23.7806 22.7716 23.8308 22.9024 23.8432 23.0394C23.8555 23.1763 23.8295 23.314 23.768 23.437C23.7065 23.5599 23.612 23.6634 23.495 23.7357C23.3781 23.8079 23.2433 23.8462 23.1058 23.8462H0.894232C0.756733 23.8462 0.621952 23.8079 0.504988 23.7357C0.388025 23.6634 0.293503 23.5599 0.232012 23.437C0.17052 23.314 0.144491 23.1763 0.156839 23.0394C0.169187 22.9024 0.219425 22.7716 0.301924 22.6616L4.74423 16.7385Z" fill="white"/>
<path fill-rule="evenodd" clip-rule="evenodd" d="M6.07693 6.07683C6.07703 4.93697 6.40604 3.82135 7.02446 2.86384C7.64289 1.90633 8.52446 1.1476 9.5634 0.678691C10.6023 0.209783 11.7545 0.0506157 12.8817 0.220289C14.0088 0.389962 15.0631 0.881267 15.918 1.63525C16.7728 2.38924 17.392 3.37387 17.7011 4.47101C18.0102 5.56815 17.9962 6.73118 17.6608 7.82056C17.3253 8.90994 16.6826 9.87938 15.8099 10.6126C14.9371 11.3457 13.8713 11.8115 12.7404 11.954V20.1441C12.7404 20.3405 12.6624 20.5288 12.5235 20.6677C12.3847 20.8065 12.1964 20.8845 12 20.8845C11.8036 20.8845 11.6153 20.8065 11.4765 20.6677C11.3376 20.5288 11.2596 20.3405 11.2596 20.1441V11.9555C9.82766 11.7751 8.51085 11.078 7.55653 9.99529C6.60222 8.91255 6.07607 7.5201 6.07693 6.07683Z" fill="white"/>
</svg>
