<svg width="22" height="22" viewBox="0 0 22 22" fill="none" xmlns="http://www.w3.org/2000/svg">
<path d="M1.30769 5.53865V3.3848C1.30769 2.81357 1.53462 2.26573 1.93854 1.8618C2.34246 1.45788 2.8903 1.23096 3.46154 1.23096H5.61539M16.3846 1.23096H18.5385C19.1097 1.23096 19.6575 1.45788 20.0615 1.8618C20.4654 2.26573 20.6923 2.81357 20.6923 3.3848V5.53865M20.6923 16.3079V18.4617C20.6923 19.033 20.4654 19.5808 20.0615 19.9847C19.6575 20.3887 19.1097 20.6156 18.5385 20.6156H16.3846M5.61539 20.6156H3.46154C2.8903 20.6156 2.34246 20.3887 1.93854 19.9847C1.53462 19.5808 1.30769 19.033 1.30769 18.4617V16.3079M5.61539 6.61557H14.2308M5.61539 10.9233H16.3846M5.61539 15.231H12.0769" stroke="black" stroke-width="2.15385" stroke-linecap="round" stroke-linejoin="round"/>
</svg>
