<svg width="25" height="24" viewBox="0 0 25 24" fill="none" xmlns="http://www.w3.org/2000/svg">
<path d="M18.4 22C17.5667 22 16.8583 21.7083 16.275 21.125C15.6917 20.5417 15.4 19.8333 15.4 19C15.4 18.8833 15.4083 18.7625 15.425 18.6375C15.4417 18.5125 15.4667 18.4 15.5 18.3L8.45 14.2C8.16667 14.45 7.85 14.6458 7.5 14.7875C7.15 14.9292 6.78333 15 6.4 15C5.56667 15 4.85833 14.7083 4.275 14.125C3.69167 13.5417 3.4 12.8333 3.4 12C3.4 11.1667 3.69167 10.4583 4.275 9.875C4.85833 9.29167 5.56667 9 6.4 9C6.78333 9 7.15 9.07083 7.5 9.2125C7.85 9.35417 8.16667 9.55 8.45 9.8L15.5 5.7C15.4667 5.6 15.4417 5.4875 15.425 5.3625C15.4083 5.2375 15.4 5.11667 15.4 5C15.4 4.16667 15.6917 3.45833 16.275 2.875C16.8583 2.29167 17.5667 2 18.4 2C19.2333 2 19.9417 2.29167 20.525 2.875C21.1083 3.45833 21.4 4.16667 21.4 5C21.4 5.83333 21.1083 6.54167 20.525 7.125C19.9417 7.70833 19.2333 8 18.4 8C18.0167 8 17.65 7.92917 17.3 7.7875C16.95 7.64583 16.6333 7.45 16.35 7.2L9.3 11.3C9.33333 11.4 9.35833 11.5125 9.375 11.6375C9.39167 11.7625 9.4 11.8833 9.4 12C9.4 12.1167 9.39167 12.2375 9.375 12.3625C9.35833 12.4875 9.33333 12.6 9.3 12.7L16.35 16.8C16.6333 16.55 16.95 16.3542 17.3 16.2125C17.65 16.0708 18.0167 16 18.4 16C19.2333 16 19.9417 16.2917 20.525 16.875C21.1083 17.4583 21.4 18.1667 21.4 19C21.4 19.8333 21.1083 20.5417 20.525 21.125C19.9417 21.7083 19.2333 22 18.4 22ZM18.4 6C18.6833 6 18.9208 5.90417 19.1125 5.7125C19.3042 5.52083 19.4 5.28333 19.4 5C19.4 4.71667 19.3042 4.47917 19.1125 4.2875C18.9208 4.09583 18.6833 4 18.4 4C18.1167 4 17.8792 4.09583 17.6875 4.2875C17.4958 4.47917 17.4 4.71667 17.4 5C17.4 5.28333 17.4958 5.52083 17.6875 5.7125C17.8792 5.90417 18.1167 6 18.4 6ZM6.4 13C6.68333 13 6.92084 12.9042 7.1125 12.7125C7.30417 12.5208 7.4 12.2833 7.4 12C7.4 11.7167 7.30417 11.4792 7.1125 11.2875C6.92084 11.0958 6.68333 11 6.4 11C6.11667 11 5.87917 11.0958 5.6875 11.2875C5.49584 11.4792 5.4 11.7167 5.4 12C5.4 12.2833 5.49584 12.5208 5.6875 12.7125C5.87917 12.9042 6.11667 13 6.4 13ZM18.4 20C18.6833 20 18.9208 19.9042 19.1125 19.7125C19.3042 19.5208 19.4 19.2833 19.4 19C19.4 18.7167 19.3042 18.4792 19.1125 18.2875C18.9208 18.0958 18.6833 18 18.4 18C18.1167 18 17.8792 18.0958 17.6875 18.2875C17.4958 18.4792 17.4 18.7167 17.4 19C17.4 19.2833 17.4958 19.5208 17.6875 19.7125C17.8792 19.9042 18.1167 20 18.4 20Z" fill="#1D1B20"/>
</svg>
