<svg width="21" height="21" viewBox="0 0 21 21" fill="none" xmlns="http://www.w3.org/2000/svg">
<path d="M18.1444 8.59198C17.8517 8.28609 17.5489 7.97089 17.4348 7.69373C17.3292 7.43985 17.323 7.01906 17.3168 6.61147C17.3052 5.85373 17.2927 4.99507 16.6957 4.39805C16.0987 3.80102 15.24 3.7886 14.4823 3.77695C14.0747 3.77074 13.6539 3.76453 13.4 3.65895C13.1236 3.54482 12.8077 3.24204 12.5018 2.94935C11.9661 2.43461 11.3574 1.85156 10.5469 1.85156C9.73635 1.85156 9.12845 2.43461 8.59198 2.94935C8.28609 3.24204 7.97089 3.54482 7.69373 3.65895C7.44141 3.76453 7.01906 3.77074 6.61147 3.77695C5.85373 3.7886 4.99507 3.80102 4.39805 4.39805C3.80102 4.99507 3.79248 5.85373 3.77695 6.61147C3.77074 7.01906 3.76453 7.43985 3.65895 7.69373C3.54482 7.97011 3.24204 8.28609 2.94935 8.59198C2.43461 9.12768 1.85156 9.73635 1.85156 10.5469C1.85156 11.3574 2.43461 11.9653 2.94935 12.5018C3.24204 12.8077 3.54482 13.1229 3.65895 13.4C3.76453 13.6539 3.77074 14.0747 3.77695 14.4823C3.7886 15.24 3.80102 16.0987 4.39805 16.6957C4.99507 17.2927 5.85373 17.3052 6.61147 17.3168C7.01906 17.323 7.43985 17.3292 7.69373 17.4348C7.97011 17.5489 8.28609 17.8517 8.59198 18.1444C9.12768 18.6591 9.73635 19.2422 10.5469 19.2422C11.3574 19.2422 11.9653 18.6591 12.5018 18.1444C12.8077 17.8517 13.1229 17.5489 13.4 17.4348C13.6539 17.3292 14.0747 17.323 14.4823 17.3168C15.24 17.3052 16.0987 17.2927 16.6957 16.6957C17.2927 16.0987 17.3052 15.24 17.3168 14.4823C17.323 14.0747 17.3292 13.6539 17.4348 13.4C17.5489 13.1236 17.8517 12.8077 18.1444 12.5018C18.6591 11.9661 19.2422 11.3574 19.2422 10.5469C19.2422 9.73635 18.6591 9.12845 18.1444 8.59198Z" fill="#22C55E"/>
<path d="M14.3115 8.0244C14.3983 8.11096 14.4673 8.2138 14.5143 8.32705C14.5613 8.44029 14.5855 8.5617 14.5855 8.68432C14.5855 8.80693 14.5613 8.92834 14.5143 9.04159C14.4673 9.15483 14.3983 9.25768 14.3115 9.34423L9.96383 13.6919C9.87728 13.7787 9.77444 13.8477 9.66119 13.8947C9.54795 13.9417 9.42654 13.9659 9.30392 13.9659C9.18131 13.9659 9.05989 13.9417 8.94665 13.8947C8.83341 13.8477 8.73056 13.7787 8.64401 13.6919L6.78073 11.8286C6.69407 11.7419 6.62533 11.6391 6.57843 11.5258C6.53152 11.4126 6.50739 11.2912 6.50739 11.1687C6.50739 11.0461 6.53152 10.9248 6.57843 10.8115C6.62533 10.6983 6.69407 10.5954 6.78073 10.5088C6.86739 10.4221 6.97027 10.3534 7.0835 10.3065C7.19673 10.2596 7.31808 10.2354 7.44064 10.2354C7.5632 10.2354 7.68456 10.2596 7.79778 10.3065C7.91101 10.3534 8.01389 10.4221 8.10055 10.5088L9.3047 11.7114L12.9932 8.02208C13.0799 7.93561 13.1828 7.86707 13.2959 7.82039C13.4091 7.7737 13.5304 7.74979 13.6528 7.75C13.7753 7.75022 13.8965 7.77456 14.0095 7.82165C14.1225 7.86873 14.2251 7.93763 14.3115 8.0244Z" fill="white"/>
</svg>
