<svg width="22" height="19" viewBox="0 0 22 19" fill="none" xmlns="http://www.w3.org/2000/svg">
<path d="M20.9845 16.2935C21.661 17.4661 20.8118 18.9319 19.4606 18.9319H1.87221C0.518424 18.9319 -0.326827 17.4639 0.348362 16.2935L9.14268 1.04558C9.81952 -0.127585 11.5147 -0.12546 12.1904 1.04558L20.9845 16.2935ZM10.6665 13.141C9.7354 13.141 8.98057 13.8959 8.98057 14.827C8.98057 15.7581 9.7354 16.513 10.6665 16.513C11.5977 16.513 12.3525 15.7581 12.3525 14.827C12.3525 13.8959 11.5977 13.141 10.6665 13.141ZM9.06586 7.08091L9.33774 12.0655C9.35046 12.2987 9.54331 12.4813 9.77689 12.4813H11.5562C11.7897 12.4813 11.9826 12.2987 11.9953 12.0655L12.2672 7.08091C12.2809 6.82897 12.0803 6.61712 11.828 6.61712H9.50498C9.25267 6.61712 9.05211 6.82897 9.06586 7.08091Z" fill="#EAC645"/>
</svg>
